#!OML:ASF H:\Terrain\Patient Classification 1\Terrain2\Thursday\justin.ASF
:FULLY-SPECIFIED
:DEGREES
3869
root 29.3982 17.9168 11.6893 2.33475 173.933 0.748665
lowerback 5.46173 0.877937 2.4701
upperback 2.14464 1.53704 2.86122
thorax -0.872055 0.854783 1.45941
lowerneck -14.1774 -3.1915 -7.80277
upperneck 37.9024 2.05679 -0.0181122
head 15.8551 1.11074 2.12216
rclavicle 5.36719e-015 -8.74653e-015
rhumerus -29.1036 -6.28598 -78.3742
rradius 31.9975
rwrist -13.1782
rhand -22.6746 9.28492
rfingers 7.12502
rthumb 3.75732 -20.6617
lclavicle 5.36719e-015 -8.74653e-015
lhumerus -34.942 13.3889 81.7228
lradius 22.0217
lwrist -2.95127
lhand -17.134 24.9884
lfingers 7.12502
lthumb 9.10602 54.7718
rfemur -7.53181 -13.7804 21.6991
rtibia 39.3867
rfoot -25.7327 -19.3186
rtoes 18.1458
lfemur -12.4376 9.01718 -22.6092
ltibia 28.7161
lfoot -15.5712 -8.70176
ltoes 3.49736
3870
root 29.397 17.9165 11.6788 2.3481 174.363 0.851624
lowerback 5.49887 0.87016 2.60027
upperback 2.1524 1.53462 2.81047
thorax -0.880033 0.854361 1.33383
lowerneck -14.164 -3.19805 -7.69605
upperneck 37.869 2.02043 -0.0299832
head 15.8353 1.11278 2.09164
rclavicle -9.14409e-015 -1.43125e-014
rhumerus -28.9671 -6.38619 -78.5527
rradius 32.5537
rwrist -13.6528
rhand -22.4123 8.41316
rfingers 7.12502
rthumb 4.0106 -21.5288
lclavicle -9.14409e-015 -1.43125e-014
lhumerus -34.9996 13.4818 81.475
lradius 21.7265
lwrist -2.9531
lhand -17.6466 23.8596
lfingers 7.12502
lthumb 8.61137 53.664
rfemur -8.04567 -13.8661 21.7387
rtibia 40.3903
rfoot -24.5885 -19.1577
rtoes 18.0752
lfemur -12.3743 8.78543 -22.4898
ltibia 28.5486
lfoot -15.2378 -9.16327
ltoes 7.26547
3871
root 29.3965 17.9183 11.6675 2.35877 174.859 0.865928
lowerback 5.52094 0.863742 2.59969
upperback 2.15368 1.52517 2.76578
thorax -0.889752 0.849185 1.2883
lowerneck -14.1164 -3.22938 -7.55679
upperneck 37.8321 1.97323 -0.125326
head 15.8084 1.10649 2.01777
rclavicle 1.33186e-014 6.52014e-014
rhumerus -28.9589 -6.28656 -78.7405
rradius 33.2181
rwrist -14.0469
rhand -22.6855 8.28429
rfingers 7.12502
rthumb 3.74681 -21.6625
lclavicle 1.33186e-014 6.52014e-014
lhumerus -35.0126 13.3506 81.4462
lradius 21.3512
lwrist -2.39675
lhand -18.7626 22.3126
lfingers 7.12502
lthumb 7.53425 52.1584
rfemur -8.57002 -13.8424 21.7298
rtibia 41.3358
rfoot -23.1707 -19.4565
rtoes 16.1459
lfemur -12.3505 8.4318 -22.4825
ltibia 28.4816
lfoot -14.8622 -9.47014
ltoes 9.68047
3872
root 29.3963 17.9214 11.6602 2.27189 175.359 0.866089
lowerback 5.60765 0.816105 2.51484
upperback 2.23851 1.46629 2.79071
thorax -0.853392 0.823277 1.36447
lowerneck -14.1373 -3.23398 -7.62452
upperneck 37.6819 1.93089 -0.0867353
head 15.7383 1.0785 2.03245
rclavicle -1.15295e-014 -9.54166e-015
rhumerus -28.7672 -6.28648 -78.7899
rradius 33.3406
rwrist -13.7674
rhand -23.0269 9.79488
rfingers 7.12502
rthumb 3.41715 -20.1575
lclavicle -1.15295e-014 -9.54166e-015
lhumerus -34.9903 13.7989 81.312
lradius 21.1165
lwrist -2.84577
lhand -18.7858 22.3965
lfingers 7.12502
lthumb 7.51186 52.2431
rfemur -8.95846 -13.7685 21.6456
rtibia 42.3325
rfoot -22.7079 -19.2118
rtoes 16.8664
lfemur -12.1789 8.17346 -22.475
ltibia 28.323
lfoot -14.4484 -9.80219
ltoes 11.1905
3873
root 29.3986 17.9296 11.6531 2.17668 175.734 0.707864
lowerback 5.74317 0.721443 2.15457
upperback 2.24251 1.32922 2.84729
thorax -0.933193 0.753611 1.63078
lowerneck -14.0454 -3.16911 -7.77898
upperneck 37.6324 2.0797 -0.0826821
head 15.6867 1.12593 2.08499
rclavicle 1.63003e-014 5.32743e-014
rhumerus -28.582 -6.17618 -78.7686
rradius 33.2299
rwrist -13.4907
rhand -22.7875 11.4967
rfingers 7.12502
rthumb 3.64827 -18.4519
lclavicle 1.63003e-014 5.32743e-014
lhumerus -35.1382 14.469 81.0704
lradius 20.939
lwrist -3.53255
lhand -18.3704 23.1226
lfingers 7.12502
lthumb 7.91286 52.9545
rfemur -9.38823 -13.6299 21.3736
rtibia 43.3735
rfoot -23.4042 -18.2572
rtoes 21.5582
lfemur -11.9401 8.13305 -22.6501
ltibia 28.0404
lfoot -14.0637 -10.0921
ltoes 12.2295
